# xmcd CD database file
#
# Track frame offsets:
#	183
#	5023
#	15843
#	17470
#	27155
#	28668
#	38865
#	48168
#	58530
#	73130
#	83690
#	84465
#	96173
#	109613
#	117788
#	126158
#	138665
#	147185
#	157153
#	168595
#	179165
#	188233
#	201460
#	213628
#	225438
#	227510
#	236288
#	245958
#	247970
#	256633
#	263873
#	266535
#	275730
#	287448
#	297308
#
# Disc length: 4113 seconds
#
# Revision: 29
# Processed by: cddbd v1.5.2PL0 Copyright (c) Steve Scherf et al.
# Submitted via: CDex 1.70beta2
#
DISCID=f2100f23
DTITLE=The Beatles - LIVE AT THE BBC [Disc2]
DYEAR=1994
DGENRE=Rock
TTITLE0=Crinsk Dee Night [Speech]
TTITLE1=A Hard Day's Night
TTITLE2=Have A Banana! [Speech]
TTITLE3=I Wanna Be Your Man
TTITLE4=Just A Rumour [Speech]
TTITLE5=Roll Over Beethoven
TTITLE6=All My Loving
TTITLE7=Things We Said Today
TTITLE8=She's A Woman
TTITLE9=Sweet Little Sixteen
TTITLE10=1822! [Speech]
TTITLE11=Lonesome Tears In My Eyes
TTITLE12=Nothin' Shakin'
TTITLE13=The Hippy Hippy Shake
TTITLE14=Glad All Over
TTITLE15=I Just Don't Understand
TTITLE16=So How Come (No One Loves Me)
TTITLE17=I Feel Fine
TTITLE18=I'm A Loser
TTITLE19=Everybody's Trying To Be My Baby
TTITLE20=Rock And Roll Music
TTITLE21=Ticket To Ride
TTITLE22=Dizzy Miss Lizzy
TTITLE23=Medley: Kansas City - Hey! Hey! Hey! Hey!
TTITLE24=Set Fire To That Lot! [Speech]
TTITLE25=Matchbox
TTITLE26=I Forgot To Remember To Forget
TTITLE27=Love These Goon Shows! [Speech]
TTITLE28=I Got To Find My Baby
TTITLE29=Ooh! My Soul
TTITLE30=Ooh! My Arms [Speech]
TTITLE31=Don't Ever Change
TTITLE32=Slow Down
TTITLE33=Honey Don't
TTITLE34=Love Me Do
EXTD=YEAR: 1994
EXTT0=
EXTT1=
EXTT2=
EXTT3=
EXTT4=
EXTT5=
EXTT6=
EXTT7=
EXTT8=
EXTT9=
EXTT10=
EXTT11=
EXTT12=
EXTT13=
EXTT14=
EXTT15=
EXTT16=
EXTT17=
EXTT18=
EXTT19=
EXTT20=
EXTT21=
EXTT22=
EXTT23=
EXTT24=
EXTT25=
EXTT26=
EXTT27=
EXTT28=
EXTT29=
EXTT30=
EXTT31=
EXTT32=
EXTT33=
EXTT34=
PLAYORDER=
